<?xml version="1.0" encoding="UTF-8"?>
<svg xmlns="http://www.w3.org/2000/svg" viewBox="0 0 4000 1000">
  <defs>
    <style>
      .cls-1 {
        fill: #fff;
      }

      .cls-2 {
        fill: red;
      }
    </style>
  </defs>
  <g id="bg">
    <rect class="cls-2" width="4000" height="1000"/>
  </g>
  <g id="text">
    <g>
      <path class="cls-1" d="m481.13,762.89V237.11h153.52v189.06h183.98v-189.06h154.69v525.78h-154.69v-200.78h-183.98v200.78h-153.52Z"/>
      <path class="cls-1" d="m1037.23,762.89V237.11h372.66v126.56h-219.14v73.44h193.75v121.87h-193.75v77.34h219.14v126.56h-372.66Z"/>
      <path class="cls-1" d="m1462.07,762.89V237.11h153.52v399.22h195.31v126.56h-348.83Z"/>
      <path class="cls-1" d="m1900.2,762.89l-167.19-525.78h164.45l95.31,363.28,96.88-363.28h166.41l-173.83,525.78h-182.03Z"/>
      <path class="cls-1" d="m2259.8,762.89V237.11h372.66v126.56h-219.14v73.44h193.75v121.87h-193.75v77.34h219.14v126.56h-372.66Z"/>
      <path class="cls-1" d="m2768.63,762.89v-399.22h-130.47v-126.56h413.67v126.56h-129.69v399.22h-153.52Z"/>
      <path class="cls-1" d="m3185.27,762.89v-182.42l-175.78-343.36h171.88l82.42,200,83.2-200h171.88l-175,343.36v182.42h-158.59Z"/>
    </g>
  </g>
  <g id="rectangle">
    <rect class="cls-2" x="580" y="403.34" width="54.75" height="193.33" transform="translate(1214.75 1000) rotate(180)"/>
  </g>
</svg>