<?xml version="1.0" encoding="UTF-8"?>
<svg id="Layer_1" data-name="Layer 1" xmlns="http://www.w3.org/2000/svg" viewBox="0 0 4000 1000">
  <defs>
    <style>
      .cls-1 {
        fill: #fff;
      }

      .cls-2 {
        fill: #ff001f;
      }

      .cls-3 {
        fill: red;
      }
    </style>
  </defs>
  <g id="a">
    <rect class="cls-3" width="4000" height="1000"/>
  </g>
  <g id="b">
    <path class="cls-1" d="m494.56,746.04V220.26h153.52v189.06h183.98v-189.06h154.69v525.78h-154.69v-200.78h-183.98v200.78h-153.52Z"/>
    <path class="cls-1" d="m1050.66,746.04V220.26h372.66v126.56h-219.14v73.44h193.75v121.88h-193.75v77.34h219.14v126.56h-372.66Z"/>
    <path class="cls-1" d="m1475.5,746.04V220.26h153.52v399.22h195.31v126.56h-348.83Z"/>
    <path class="cls-1" d="m1913.62,746.04l-167.19-525.78h164.45l95.31,363.28,96.88-363.28h166.41l-173.83,525.78h-182.03,0Z"/>
    <path class="cls-1" d="m2273.23,746.04V220.26h372.66v126.56h-219.14v73.44h193.75v121.88h-193.75v77.34h219.14v126.56h-372.66Z"/>
    <path class="cls-1" d="m2782.06,746.04v-399.22h-130.47v-126.56h413.67v126.56h-129.69v399.22h-153.52.01Z"/>
    <path class="cls-1" d="m3198.7,746.04v-182.42l-175.78-343.36h171.88l82.42,200,83.2-200h171.88l-175,343.36v182.42h-158.6Z"/>
  </g>
  <g id="c">
    <rect class="cls-2" x="613.22" y="397.56" width="67.56" height="167.11"/>
  </g>
</svg>